<svg width="358" height="540" viewBox="0 0 358 540" fill="none" xmlns="http://www.w3.org/2000/svg">
<rect width="358" height="540" fill="#E5E5E5"/>
<g clip-path="url(#clip0_0:1)">
<rect width="1440" height="820" transform="translate(-541 -140)" fill="#121214"/>
<rect x="139" y="16" width="80" height="8" fill="#121214"/>
<rect x="147" y="-139" width="64" height="157" fill="url(#paint0_linear_0:1)"/>
<circle cx="340" cy="-277" r="559" transform="rotate(-180 340 -277)" fill="url(#paint1_radial)"/>
<circle cx="18" cy="-277" r="559" transform="rotate(-180 18 -277)" fill="url(#paint2_radial)"/>
<rect width="358" height="540" fill="#202024"/>
<mask id="mask0_0:1" style="mask-type:alpha" maskUnits="userSpaceOnUse" x="0" y="0" width="358" height="540">
<rect width="358" height="540" fill="#202024"/>
</mask>
<g mask="url(#mask0)">
<path d="M358 61.4924V-396.824L178.5 -500L-1 -396.824V61.4924L178.5 164.674L358 61.4924Z" fill="url(#paint3_linear)"/>
<g style="mix-blend-mode:luminosity" opacity="0.4">
<path d="M0.800786 -40.6504V62.1591L90.1006 113.569L179.4 62.1591V-40.6504L90.1006 -92.0601L0.800786 -40.6504Z" fill="url(#paint4_linear)"/>
<path d="M0.800786 -143.465V-40.6555L90.1006 10.7541L179.4 -40.6555V-143.465L90.1006 -194.875L0.800786 -143.465Z" fill="url(#paint5_linear)"/>
<path d="M179.4 62.1587V-40.6508L268.7 -92.0605L358 -40.6508V62.1587L268.7 113.568L179.4 62.1587Z" fill="url(#paint6_linear)"/>
<path d="M358 -143.465V-40.6555L268.7 10.7541L179.4 -40.6555V-143.465L268.7 -194.875L358 -143.465Z" fill="url(#paint7_linear)"/>
<path d="M268.7 113.59V10.7808L179.4 -40.6289L90.1006 10.7808L90.1006 113.59L179.4 165L268.7 113.59Z" fill="url(#paint8_linear)"/>
</g>
</g>
</g>
<defs>
<linearGradient id="paint0_linear" x1="108.5" y1="-139" x2="240.013" y2="18.8222" gradientUnits="userSpaceOnUse">
<stop stop-color="#FF008E"/>
<stop offset="1" stop-color="#FFCD1E"/>
</linearGradient>
<radialGradient id="paint1_radial" cx="0" cy="0" r="1" gradientUnits="userSpaceOnUse" gradientTransform="translate(340 -277) rotate(90) scale(559)">
<stop stop-color="#FFC323"/>
<stop offset="1" stop-color="#121214" stop-opacity="0"/>
</radialGradient>
<radialGradient id="paint2_radial" cx="0" cy="0" r="1" gradientUnits="userSpaceOnUse" gradientTransform="translate(18 -277) rotate(90) scale(559)">
<stop stop-color="#FF3D6E"/>
<stop offset="1" stop-color="#121214" stop-opacity="0"/>
</radialGradient>
<linearGradient id="paint3_linear" x1="-1.00001" y1="-484.234" x2="438.976" y2="-423.679" gradientUnits="userSpaceOnUse">
<stop stop-color="#FF008E"/>
<stop offset="1" stop-color="#FFCD1E"/>
</linearGradient>
<linearGradient id="paint4_linear" x1="90.1006" y1="108.84" x2="1.1853" y2="-42.8961" gradientUnits="userSpaceOnUse">
<stop stop-color="#FFD600"/>
<stop offset="0.0001" stop-color="#FFD600"/>
<stop offset="1" stop-color="#FF008E" stop-opacity="0"/>
</linearGradient>
<linearGradient id="paint5_linear" x1="90.1006" y1="6.02582" x2="1.18528" y2="-145.711" gradientUnits="userSpaceOnUse">
<stop stop-color="#8257E5"/>
<stop offset="1" stop-color="#FF008E" stop-opacity="0"/>
</linearGradient>
<linearGradient id="paint6_linear" x1="358" y1="67.9367" x2="179.676" y2="-39.672" gradientUnits="userSpaceOnUse">
<stop stop-color="#FF008E" stop-opacity="0"/>
<stop offset="1" stop-color="#FFCD1E"/>
</linearGradient>
<linearGradient id="paint7_linear" x1="268.7" y1="6.02582" x2="357.615" y2="-145.711" gradientUnits="userSpaceOnUse">
<stop stop-color="#8257E5"/>
<stop offset="1" stop-color="#FF008E" stop-opacity="0"/>
</linearGradient>
<linearGradient id="paint8_linear" x1="179.4" y1="-35.9006" x2="268.316" y2="115.836" gradientUnits="userSpaceOnUse">
<stop stop-color="#8257E5"/>
<stop offset="1" stop-color="#FF008E" stop-opacity="0"/>
</linearGradient>
<clipPath id="clip0">
<rect width="1440" height="820" fill="white" transform="translate(-541 -140)"/>
</clipPath>
</defs>
</svg>
